<?xml version="1.0" encoding="UTF-8" standalone="no"?>
<!-- Generator: Adobe Illustrator 19.0.0, SVG Export Plug-In . SVG Version: 6.00 Build 0)  -->

<svg
  version="1.1"
  id="Layer_1"
  x="0px"
  y="0px"
  viewBox="0 0 485 391"
  xml:space="preserve"
  sodipodi:docname="clouds-svgrepo-com.svg"
  width="485"
  height="391"
  inkscape:version="1.1.2 (0a00cf5339, 2022-02-04)"
  xmlns:inkscape="http://www.inkscape.org/namespaces/inkscape"
  xmlns:sodipodi="http://sodipodi.sourceforge.net/DTD/sodipodi-0.dtd"
  xmlns="http://www.w3.org/2000/svg"
><defs
   id="defs127" />
  <sodipodi:namedview
    id="namedview125"
    pagecolor="#ffffff"
    bordercolor="#666666"
    borderopacity="1.0"
    inkscape:pageshadow="2"
    inkscape:pageopacity="0.0"
    inkscape:pagecheckerboard="0"
    showgrid="false"
    inkscape:zoom="1.814433"
    inkscape:cx="65.585227"
    inkscape:cy="242.5"
    inkscape:window-width="1920"
    inkscape:window-height="1131"
    inkscape:window-x="0"
    inkscape:window-y="32"
    inkscape:window-maximized="1"
    inkscape:current-layer="Layer_1"/>
  <path
    d="M 485,166.586 C 485,127.387 456.294,94.767 418.799,88.639 407.027,37.329 361.104,0 307.321,0 259.218,0 216.343,30.346 199.954,74.864 144.043,87.64 99.608,132.091 87.872,189.388 38.375,195.737 0,238.136 0,289.329 0,344.89 45.202,390.092 100.763,390.092 h 264.601 c 55.561,0 100.763,-45.202 100.763,-100.763 0,-20.852 -6.369,-40.242 -17.261,-56.334 C 471.077,218.748 485,194.074 485,166.586 Z M 307.322,30 c 42.764,0 78.789,31.97 83.798,74.366 l 1.564,13.24 h 13.332 c 27.01,0 48.984,21.973 48.984,48.98 0,18.897 -10.598,35.657 -27.05,43.832 C 413.927,199.273 396.879,191.777 378.255,189.387 364.397,121.733 304.953,71.99 234.855,71.154 249.82,46.162 277.171,30 307.322,30 Z m 58.042,330.092 H 100.763 C 61.744,360.092 30,328.348 30,289.329 30,250.31 61.746,218.566 100.768,218.566 H 114.1 l 1.564,-13.24 c 7.018,-59.399 57.489,-104.191 117.399,-104.191 59.91,0 110.381,44.792 117.399,104.191 l 1.564,13.24 h 13.332 c 39.021,0 70.768,31.744 70.768,70.763 0,39.019 -31.743,70.763 -70.762,70.763 z"
    id="path92"/>
  <g
    id="g94">
</g>
  <g
    id="g96">
</g>
  <g
    id="g98">
</g>
  <g
    id="g100">
</g>
  <g
    id="g102">
</g>
  <g
    id="g104">
</g>
  <g
    id="g106">
</g>
  <g
    id="g108">
</g>
  <g
    id="g110">
</g>
  <g
    id="g112">
</g>
  <g
    id="g114">
</g>
  <g
    id="g116">
</g>
  <g
    id="g118">
</g>
  <g
    id="g120">
</g>
  <g
    id="g122">
</g>
</svg>
